# xmcd
#
# Track frame offsets:
#   150
#   16701
#   27268
#   32117
#   35547
#   42388
#   45375
#   49825
#   54688
#   73836
#   86724
#   91050
#   95660
#   100722
#   104358
#   109239
#   110826
#   117777
#   134142
#   142740
#   147369
#   152045
#   154538
#   160058
#   164427
#   174071
#   187156
#   194054
#   197928
#   202656
#   204905
#   212971
#   216156
#   217382
#   217852
#   219820
#   222266
#   224840
#
# Disc length: 3026 seconds
#
# Revision: 0
# Processed by: cddbd v1.5.2PL0 Copyright (c) Steve Scherf et al.
# Submitted via: GXTranscoder 2.0.1939
#
DISCID=430bd026
DTITLE=ivan-anna - ivan-anna
DYEAR=2008
DGENRE=Blues
TTITLE0=ivan-anna
TTITLE1=ivan-anna2
TTITLE2=ivan-anna3
TTITLE3=ivan-anna4
TTITLE4=ivan-anna5
TTITLE5=ivan-anna6
TTITLE6=ivan-anna7
TTITLE7=ivan-anna8
TTITLE8=ivan-anna9
TTITLE9=ivan-anna10
TTITLE10=ivan-anna11
TTITLE11=ivan-anna12
TTITLE12=ivan-anna13
TTITLE13=ivan-anna14
TTITLE14=ivan-anna15
TTITLE15=ivan-anna16
TTITLE16=ivan-anna17
TTITLE17=ivan-anna18
TTITLE18=ivan-anna19
TTITLE19=ivan-anna20
TTITLE20=ivan-anna21
TTITLE21=ivan-anna22
TTITLE22=ivan-anna23
TTITLE23=ivan-anna24
TTITLE24=ivan-anna25
TTITLE25=ivan-anna26
TTITLE26=ivan-anna27
TTITLE27=ivan-anna28
TTITLE28=ivan-anna29
TTITLE29=ivan-anna30
TTITLE30=ivan-anna31
TTITLE31=ivan-anna32
TTITLE32=ivan-anna33
TTITLE33=ivan-anna34
TTITLE34=ivan-anna35
TTITLE35=ivan-anna36
TTITLE36=ivan-anna37
TTITLE37=ivan-anna38
EXTD=
EXTT0=
EXTT1=
EXTT2=
EXTT3=
EXTT4=
EXTT5=
EXTT6=
EXTT7=
EXTT8=
EXTT9=
EXTT10=
EXTT11=
EXTT12=
EXTT13=
EXTT14=
EXTT15=
EXTT16=
EXTT17=
EXTT18=
EXTT19=
EXTT20=
EXTT21=
EXTT22=
EXTT23=
EXTT24=
EXTT25=
EXTT26=
EXTT27=
EXTT28=
EXTT29=
EXTT30=
EXTT31=
EXTT32=
EXTT33=
EXTT34=
EXTT35=
EXTT36=
EXTT37=
PLAYORDER=
